<svg width="32" height="32" viewBox="0 0 32 32" fill="none" xmlns="http://www.w3.org/2000/svg">
<path fill-rule="evenodd" clip-rule="evenodd" d="M25.4531 10.971C25.199 10.7767 24.2574 10.7767 23.3307 10.7767C22.3891 10.7917 21.4325 10.7917 21.2233 10.8813C21.014 10.9561 20.5657 12.0621 19.9828 13.183C19.3102 14.4535 18.4881 15.694 17.965 15.6641C17.2775 15.6641 17.4419 13.5717 17.4867 12.0172C17.5017 11.0009 17.3373 10.6721 17.1878 10.5973C16.8291 10.3433 15.8427 10.1041 15.8427 10.1041C15.8427 10.1041 12.8982 9.87993 12.4797 11.1504C13.0477 11.2251 14.0192 11.0607 13.6306 14.9915C13.6007 15.1858 13.1822 16.8 11.8072 14.6179C11.4634 14.0798 10.1631 10.7917 9.69975 10.7767C8.17523 10.7468 6.68061 10.6721 6.15749 10.971C5.66426 11.255 6.81512 13.5119 8.75814 16.546C10.3275 19.027 12.0015 20.97 14.8861 21.4483C15.4391 21.5081 16.844 21.5679 17.2924 21.3586C17.5914 21.2092 17.2177 19.0719 18.249 18.8626C18.6974 18.7729 20.461 21.1046 21.1336 21.3586C21.5372 21.523 22.419 21.5828 23.3307 21.5529C24.3172 21.523 25.4381 21.6426 25.5428 20.97C25.7819 19.4904 22.5685 17.5623 22.4788 16.6655C22.404 16.0079 23.6595 14.7972 24.2873 13.8855C25.0794 12.7347 25.9463 11.3895 25.4531 10.971Z" fill="black"/>
<path d="M15.8131 1.49462C23.7047 1.49462 30.1316 7.9215 30.1316 15.8131C30.1316 23.7047 23.7047 30.1316 15.8131 30.1316C7.9215 30.1316 1.49462 23.7197 1.49462 15.8131C1.49462 7.90656 7.9215 1.49462 15.8131 1.49462ZM15.8131 0C7.08452 0 0 7.08452 0 15.8131C0 24.5417 7.08452 31.6262 15.8131 31.6262C24.5417 31.6262 31.6262 24.5417 31.6262 15.8131C31.6262 7.08452 24.5567 0 15.8131 0Z" fill="black"/>
</svg>
