<svg width="32" height="32" viewBox="0 0 32 32" fill="none" xmlns="http://www.w3.org/2000/svg">
<path d="M15.9838 1.48332C23.8217 1.48332 30.1941 7.85567 30.1941 15.6936C30.1941 23.5314 23.8217 29.9038 15.9838 29.9038C8.14596 29.9038 1.77361 23.5314 1.77361 15.6936C1.77361 7.85567 8.14596 1.48332 15.9838 1.48332ZM15.9838 0C7.3153 0 0.290283 7.02501 0.290283 15.6936C0.290283 24.3621 7.3153 31.3871 15.9838 31.3871C24.6524 31.3871 31.6774 24.3621 31.6774 15.6936C31.6774 7.02501 24.6524 0 15.9838 0Z" fill="black"/>
<path d="M19.207 14.1385H12.9101V7.47314H10.0801V23.914H12.9101V17.0657H19.207V23.914H22.0371V7.47314H19.207V14.1385Z" fill="black"/>
</svg>
