<svg width="33" height="32" viewBox="0 0 33 32" fill="none" xmlns="http://www.w3.org/2000/svg">
<path d="M16.4581 1.49462C24.3497 1.49462 30.7766 7.9215 30.7766 15.8131C30.7766 23.7047 24.3497 30.1316 16.4581 30.1316C8.56652 30.1466 2.13964 23.7197 2.13964 15.8131C2.13964 7.9215 8.56652 1.49462 16.4581 1.49462ZM16.4581 0C7.72953 0 0.64502 7.08452 0.64502 15.8131C0.64502 24.5567 7.72953 31.6262 16.4581 31.6262C25.2017 31.6262 32.2713 24.5417 32.2713 15.8131C32.2862 7.08452 25.2017 0 16.4581 0Z" fill="black"/>
<path d="M19.866 24.7955H13.0654C11.5857 24.7955 10.1659 24.2126 9.11962 23.1663C8.07338 22.1201 7.49048 20.7002 7.49048 19.2205V12.42C7.49048 9.34105 9.9865 6.84502 13.0654 6.83008H19.866C21.3456 6.83008 22.7655 7.41298 23.8118 8.45922C24.858 9.50545 25.4409 10.9253 25.4409 12.405V19.2056C25.4409 22.2994 22.9449 24.7955 19.866 24.7955ZM16.4582 11.1944C13.9024 11.1944 11.8398 13.257 11.8398 15.8128C11.8099 17.4718 12.6918 19.0262 14.1266 19.8632C15.5614 20.7002 17.34 20.7002 18.7898 19.8632C20.2247 19.0262 21.1065 17.4718 21.0766 15.8128C21.0766 14.5872 20.5834 13.4064 19.7314 12.5395C18.8646 11.6876 17.6838 11.1944 16.4582 11.1944ZM21.1065 9.68481C20.7179 9.66986 20.3592 9.87911 20.1649 10.2079C19.9706 10.5367 19.9706 10.9552 20.1649 11.2841C20.3592 11.6129 20.7179 11.8072 21.1065 11.8072C21.6745 11.7922 22.1228 11.3289 22.1228 10.7609C22.1378 10.1631 21.6745 9.69976 21.1065 9.68481ZM16.4582 18.7572C15.397 18.7871 14.3956 18.2341 13.8426 17.3074C13.3046 16.3807 13.3046 15.2448 13.8426 14.3181C14.5152 13.1822 15.8604 12.6292 17.1457 12.973C18.4311 13.3167 19.313 14.4826 19.313 15.8128C19.3279 17.412 18.0575 18.7123 16.4582 18.7572Z" fill="black"/>
</svg>
