<svg width="160" height="31" viewBox="0 0 160 31" fill="none" xmlns="http://www.w3.org/2000/svg">
<path d="M17.3485 12.6645H5.38711V0.414673H0V30.675H5.38711V18.0441H17.3485V30.6301H22.7244V0.36985H17.3485V12.6645ZM45.4711 0C42.4076 0 39.4129 0.909056 36.8657 2.61222C34.3185 4.31538 32.3332 6.73615 31.1609 9.5684C29.9885 12.4007 29.6818 15.5172 30.2794 18.5239C30.8771 21.5306 32.3523 24.2924 34.5185 26.4601C36.6847 28.6279 39.4446 30.1041 42.4493 30.7022C45.4539 31.3002 48.5683 30.9933 51.3986 29.8201C54.2289 28.647 56.648 26.6603 58.35 24.1113C60.0519 21.5624 60.9604 18.5656 60.9604 15.5C60.9604 11.3891 59.3285 7.44666 56.4237 4.53984C53.5189 1.63303 49.5791 0 45.4711 0ZM45.4711 25.6204C43.4775 25.6204 41.5287 25.0288 39.8711 23.9205C38.2134 22.8121 36.9215 21.2368 36.1586 19.3937C35.3957 17.5505 35.196 15.5224 35.585 13.5658C35.9739 11.6091 36.9339 9.81186 38.3436 8.4012C39.7533 6.99054 41.5493 6.02986 43.5046 5.64066C45.4599 5.25146 47.4866 5.45122 49.3285 6.21466C51.1703 6.9781 52.7446 8.27095 53.8521 9.92971C54.9597 11.5885 55.5509 13.5386 55.5509 15.5336C55.5509 18.2088 54.4889 20.7744 52.5986 22.666C50.7083 24.5577 48.1444 25.6204 45.4711 25.6204ZM113.689 0C110.626 0.00221629 107.632 0.913156 105.087 2.61766C102.541 4.32217 100.557 6.74372 99.3867 9.57616C98.216 12.4086 97.9109 15.5248 98.5098 18.5308C99.1087 21.5367 100.585 24.2975 102.751 26.4641C104.918 28.6307 107.678 30.1058 110.682 30.703C113.687 31.3001 116.801 30.9925 119.63 29.8191C122.46 28.6456 124.878 26.6589 126.58 24.1102C128.281 21.5615 129.189 18.5651 129.189 15.5C129.189 11.3911 127.559 7.45029 124.657 4.5438C121.754 1.63731 117.817 0.00297102 113.711 0H113.689ZM113.711 25.6204C111.718 25.6204 109.769 25.0288 108.111 23.9205C106.454 22.8121 105.162 21.2368 104.399 19.3937C103.636 17.5505 103.436 15.5224 103.825 13.5658C104.214 11.6091 105.174 9.81186 106.584 8.4012C107.994 6.99054 109.79 6.02986 111.745 5.64066C113.7 5.25146 115.727 5.45122 117.569 6.21466C119.411 6.9781 120.985 8.27095 122.092 9.92971C123.2 11.5885 123.791 13.5386 123.791 15.5336C123.791 18.2088 122.729 20.7744 120.839 22.666C118.948 24.5577 116.385 25.6204 113.711 25.6204ZM150.839 19.6132C153.073 18.9044 154.98 17.4196 156.216 15.4268C157.452 13.434 157.935 11.0646 157.578 8.74654C157.221 6.4285 156.048 4.31461 154.269 2.78665C152.491 1.25869 150.226 0.417383 147.882 0.414673H136.424V30.675H141.812V17.226L153.011 30.675H160L150.839 19.6132ZM147.815 14.6931H141.834V5.79428H147.815C148.9 5.92803 149.899 6.45423 150.623 7.27377C151.347 8.09331 151.747 9.14961 151.747 10.2437C151.747 11.3377 151.347 12.394 150.623 13.2136C149.899 14.0331 148.9 14.5593 147.815 14.6931ZM85.5775 19.1761L72.5298 0.325019H68.2402V30.5853H73.6161V11.5886L86.7311 30.5405H90.9646V0.280188H85.5103L85.5775 19.1761Z" fill="black"/>
</svg>
