<svg width="19" height="19" viewBox="0 0 19 19" fill="none" xmlns="http://www.w3.org/2000/svg">
<path d="M12.866 18.7955H6.06543C4.58575 18.7955 3.16586 18.2126 2.11962 17.1663C1.07338 16.1201 0.490479 14.7002 0.490479 13.2205V6.41997C0.490479 3.34105 2.9865 0.845024 6.06543 0.830078H12.866C14.3456 0.830078 15.7655 1.41298 16.8118 2.45922C17.858 3.50545 18.4409 4.92535 18.4409 6.40503V13.2056C18.4409 16.2994 15.9449 18.7955 12.866 18.7955ZM9.45822 5.19438C6.90241 5.19438 4.83983 7.25696 4.83983 9.81277C4.80994 11.4718 5.69177 13.0262 7.12661 13.8632C8.56145 14.7002 10.34 14.7002 11.7898 13.8632C13.2247 13.0262 14.1065 11.4718 14.0766 9.81277C14.0766 8.58718 13.5834 7.40642 12.7314 6.53954C11.8646 5.68761 10.6838 5.19438 9.45822 5.19438ZM14.1065 3.68481C13.7179 3.66986 13.3592 3.87911 13.1649 4.20793C12.9706 4.53674 12.9706 4.95524 13.1649 5.28406C13.3592 5.61287 13.7179 5.80718 14.1065 5.80718C14.6745 5.79223 15.1228 5.3289 15.1228 4.76094C15.1378 4.16309 14.6745 3.69976 14.1065 3.68481ZM9.45822 12.7572C8.39704 12.7871 7.39564 12.2341 6.84263 11.3074C6.30456 10.3807 6.30456 9.24481 6.84263 8.31814C7.51521 7.18223 8.86037 6.62922 10.1457 6.97298C11.4311 7.31675 12.313 8.48255 12.313 9.81277C12.3279 11.412 11.0575 12.7123 9.45822 12.7572Z" fill="black"/>
</svg>
