<svg width="20" height="12" viewBox="0 0 20 12" fill="none" xmlns="http://www.w3.org/2000/svg">
<path fill-rule="evenodd" clip-rule="evenodd" d="M19.4531 0.971006C19.199 0.776705 18.2574 0.776705 17.3307 0.776705C16.3891 0.791651 15.4325 0.791651 15.2233 0.881328C15.014 0.95606 14.5657 2.06208 13.9828 3.18305C13.3102 4.45348 12.4881 5.69402 11.965 5.66412C11.2775 5.66412 11.4419 3.57165 11.4867 2.01724C11.5017 1.0009 11.3373 0.672081 11.1878 0.59735C10.8291 0.343264 9.84265 0.104124 9.84265 0.104124C9.84265 0.104124 6.89824 -0.12007 6.47975 1.15036C7.04771 1.22509 8.01921 1.06068 7.63061 4.99154C7.60072 5.18584 7.18222 6.80004 5.80717 4.61789C5.4634 4.07982 4.16308 0.791651 3.69975 0.776705C2.17523 0.746812 0.680608 0.672081 0.15749 0.971006C-0.335736 1.25498 0.815125 3.51187 2.75814 6.54595C4.32749 9.02703 6.00147 10.97 8.88609 11.4483C9.4391 11.5081 10.844 11.5679 11.2924 11.3586C11.5914 11.2092 11.2177 9.07187 12.249 8.86262C12.6974 8.77294 14.461 11.1046 15.1336 11.3586C15.5372 11.523 16.419 11.5828 17.3307 11.5529C18.3172 11.523 19.4381 11.6426 19.5428 10.97C19.7819 9.49036 16.5685 7.56229 16.4788 6.66552C16.4041 6.00789 17.6595 4.79724 18.2873 3.88552C19.0794 2.73466 19.9463 1.3895 19.4531 0.971006Z" fill="black"/>
</svg>
