<svg width="32" height="32" viewBox="0 0 32 32" fill="none" xmlns="http://www.w3.org/2000/svg">
<path d="M16.1354 1.49462C24.027 1.49462 30.4539 7.9215 30.4539 15.8131C30.4539 23.7047 24.027 30.1316 16.1354 30.1316C8.24377 30.1316 1.81689 23.7197 1.81689 15.8131C1.81689 7.90656 8.24377 1.49462 16.1354 1.49462ZM16.1354 0C7.40678 0 0.322266 7.08452 0.322266 15.8131C0.322266 24.5417 7.40678 31.6262 16.1354 31.6262C24.8789 31.6262 31.9485 24.5417 31.9485 15.8131C31.9485 7.08452 24.8789 0 16.1354 0Z" fill="black"/>
<path d="M13.8781 24.8554V16.2464H12.1294V13.4066H13.8781V11.6728C13.8781 9.34121 14.5806 7.66724 17.1214 7.66724H20.1555V10.507H18.0182C16.9421 10.507 16.7029 11.2244 16.7029 11.9568V13.3916H19.9911L19.5427 16.2464H16.7029V24.8554H13.8781Z" fill="black"/>
</svg>
