<svg width="33" height="32" viewBox="0 0 33 32" fill="none" xmlns="http://www.w3.org/2000/svg">
<path fill-rule="evenodd" clip-rule="evenodd" d="M25.5741 11.906C25.5741 11.906 25.3876 10.5946 24.8438 10.0228C24.1539 9.27382 23.377 9.2645 23.032 9.21478C20.49 9.02832 16.6769 9.02832 16.6769 9.02832H16.6551C16.6551 9.02832 12.8514 9.02832 10.3094 9.21478C9.94576 9.2645 9.17818 9.27382 8.48829 10.0228C7.94756 10.5946 7.75799 11.906 7.75799 11.906C7.75799 11.906 7.57153 13.4443 7.57153 14.9608V15.1566V16.409C7.57153 17.9472 7.75799 19.4638 7.75799 19.4638C7.75799 19.4638 7.94445 20.7752 8.48829 21.3563C9.17818 22.1146 10.0856 22.0866 10.4989 22.1643C11.9471 22.3104 16.6769 22.3601 16.6769 22.3601C16.6769 22.3601 20.49 22.3414 23.032 22.1643C23.377 22.1146 24.1539 22.1146 24.8438 21.3563C25.3876 20.7752 25.5741 19.4638 25.5741 19.4638C25.5741 19.4638 25.7512 17.9472 25.7512 16.409V15.2374V14.9608C25.7512 13.4412 25.5741 11.906 25.5741 11.906ZM19.7006 15.4922L14.7843 18.143V14.0627V12.8227L17.0125 14.0347L19.7006 15.4922Z" fill="black"/>
<path d="M16.6612 1.48234C24.4955 1.48234 30.8724 7.8561 30.8724 15.6936C30.8724 23.531 24.4955 29.9048 16.6612 29.9048C8.82686 29.9048 2.44999 23.5279 2.44999 15.6936C2.44999 7.85921 8.82686 1.48234 16.6612 1.48234ZM16.6612 0C7.99401 0 0.967651 7.02636 0.967651 15.6936C0.967651 24.3607 7.99401 31.3871 16.6612 31.3871C25.3284 31.3871 32.3548 24.3607 32.3548 15.6936C32.3548 7.02636 25.3284 0 16.6612 0Z" fill="black"/>
</svg>
